<svg xmlns="http://www.w3.org/2000/svg" width="91.251" height="91.418" viewBox="0 0 91.251 91.418">
  <path id="Path_212" data-name="Path 212" d="M88.832,59.626l-8.18-4.514,8.18-4.515a5.582,5.582,0,0,0,0-9.775L80.65,36.307l8.181-4.516a5.582,5.582,0,0,0,0-9.774l-6.268-3.46A1.339,1.339,0,1,0,81.27,20.9l6.268,3.46a2.9,2.9,0,0,1,0,5.086L50.174,50.07a8.4,8.4,0,0,1-8.164,0L4.646,29.447a2.9,2.9,0,0,1,0-5.086L42.01,3.739a8.4,8.4,0,0,1,8.164,0L76.582,18.315a1.339,1.339,0,0,0,1.294-2.345L51.468,1.395a11.059,11.059,0,0,0-10.752,0L3.352,22.017a5.582,5.582,0,0,0,0,9.774l8.181,4.516L3.351,40.822a5.582,5.582,0,0,0,0,9.775l8.18,4.515-8.18,4.514a5.585,5.585,0,0,0,0,9.778L17.835,77.4a1.339,1.339,0,0,0,1.294-2.345L4.646,67.06a2.907,2.907,0,0,1,0-5.089L14.3,56.642,40.715,71.22a11.067,11.067,0,0,0,10.754,0L77.881,56.642l9.656,5.328a2.907,2.907,0,0,1,0,5.089L50.174,87.68a8.409,8.409,0,0,1-8.166,0L23.819,77.64a1.339,1.339,0,0,0-1.294,2.344l18.19,10.04a11.073,11.073,0,0,0,10.753,0L88.832,69.4a5.585,5.585,0,0,0,0-9.778Zm-38.657,9.25a8.4,8.4,0,0,1-8.166,0L4.645,48.253a2.9,2.9,0,0,1,0-5.086l9.659-5.33L40.716,52.414a11.068,11.068,0,0,0,10.752,0L77.88,37.837l9.659,5.33a2.9,2.9,0,0,1,0,5.086Z" transform="translate(-0.466 0)" fill="#ffbe00"/>
</svg>
